<svg xmlns="http://www.w3.org/2000/svg" width="470" height="371" fill="none"><path fill="#32334C" d="M31.748 322.12c-10.778-11.455-19.066-25.851-24.032-43.415-12.105-42.813-10.588-95.11 16.782-131.927 17.006-22.876 42.13-38.617 69.792-45.02 28.768-6.66 35.977-32.135 54.519-52.174 15.639-16.902 37.32-30.306 58.694-38.5 57.439-22.02 143.64-9.331 176.925 48.443 8.722 15.139 11.618 33.749 21.849 48.016 10.946 15.264 28.891 22.839 39.946 37.806 11.173 15.127 17.648 33.477 20.074 52.032 3.15 24.093-.175 48.633-6.027 72.215-28.213 113.687-182.26 81.511-269.56 85.365-26.004 1.148-52.051 4.026-77.999 1.968-30.038-2.382-59.898-12.42-80.963-34.809Z"/><path fill="#242537" d="M233.93 370.808c118.049 0 213.747-9.957 213.747-22.24 0-12.283-95.698-22.24-213.747-22.24-118.05 0-213.747 9.957-213.747 22.24 0 12.283 95.697 22.24 213.747 22.24Z"/><path fill="#C3B7FC" d="M267.76 218.854c.882 3.554.521 7.287.023 10.925-.77 5.665-1.866 11.336-4.058 16.624-2.723 6.564-7.278 12.825-13.004 17.099a17.159 17.159 0 0 1-4.617 2.484c-1.286.455-2.577.74-3.906.93-2.785.398-5.709.365-8.925.541-15.224.826-29.836-1.686-42.894-10.018-4.035-2.571-7.88-5.694-10.209-9.879-1.277-2.289-2.021-4.954-2.018-7.566a12.275 12.275 0 0 1 .63-3.991 10.41 10.41 0 0 1 .983-2.133c3.353-5.547 10.747-6.929 17.227-6.904-8.405-1.377-16.307-5.666-22.036-11.971-3.244-3.57-5.877-8.14-5.853-12.894.003-.524.04-1.044.107-1.573.11-.829.34-1.64.67-2.417 1.753-4.214 6.374-7.371 10.655-5.918-3.914-5.065-7.835-10.128-11.756-15.191-2.766-3.585-5.588-7.242-7.103-11.517-1.266-3.577-1.492-7.71.006-11.138.285-.665.639-1.294 1.059-1.896a8.476 8.476 0 0 1 1.172-1.343c2.873-2.717 7.548-3.649 10.738-1.338-2.768-6.719-5.565-13.551-6.321-20.778-.748-7.23.805-15.037 5.796-20.326a16.534 16.534 0 0 1 4.382-3.292 17.37 17.37 0 0 1 3.712-1.432c4.001-1.043 8.3-.602 11.669 1.783 4.096 2.912 6.076 7.92 7.749 12.659a410.75 410.75 0 0 1 6.487 19.996c-.787-5.114 4.617-9.702 9.774-9.316.787.057 1.555.203 2.296.423 1.358.405 2.635 1.066 3.791 1.913 2.361 1.719 4.257 4.202 5.449 6.886 2.097 4.734 2.424 10.021 2.728 15.184l1.105 18.988c.324-4.687 5.851-7.8 10.417-6.684.241.062.484.131.722.21 1.387.445 2.641 1.187 3.754 2.13 2.234 1.907 3.861 4.648 4.701 7.512 1.328 4.507 1.05 9.309.757 13.994l-1.551 25.072c.857-2.829 3.93-4.465 6.91-4.36.717.015 1.42.14 2.092.374.582.205 1.133.47 1.66.783 2.55 1.569 4.297 4.402 5.03 7.365Z"/><path fill="#DFDBFC" d="M236.96 249.226c2.897 5.671 5.924 11.283 9.143 16.76-1.286.455-2.577.74-3.906.93a225.909 225.909 0 0 1-2.332-4.093 495.165 495.165 0 0 1-6.922-12.909 119.683 119.683 0 0 1-54.792-9.919 12.275 12.275 0 0 1 .63-3.991 115.68 115.68 0 0 0 52.207 10.097c-4.98-9.828-9.663-19.825-14.109-29.923-16.772-1.416-33.02-6.16-47.777-14.076.003-.524.04-1.044.107-1.573.11-.829.34-1.64.67-2.417 13.967 7.647 29.336 12.46 45.24 14.025-4.629-10.693-9.006-21.492-13.205-32.3-.12-.297-.233-.596-.346-.895-15.509-4.204-28.433-13.643-39.887-24.594.285-.665.639-1.294 1.059-1.896a8.476 8.476 0 0 1 1.172-1.343c10.395 10.024 22.053 18.863 35.898 23.26-4.847-12.718-9.398-25.556-13.545-38.516-3.203-9.999-6.027-20.144-7.758-30.478a17.37 17.37 0 0 1 3.712-1.432c2.042 12.623 5.788 24.918 9.831 37.068a819.585 819.585 0 0 0 12.173 33.975c3.961-2.691 6.103-6.891 7.797-11.339 1.922-5.062 3.515-10.304 4.928-15.521 1.664-6.141 2.884-12.368 3.246-18.637 1.358.405 2.635 1.066 3.791 1.913-.565 6.785-2.048 13.514-3.949 20.091-2.715 9.384-5.333 21.813-14.377 27.196a810.694 810.694 0 0 0 14.879 35.771c14.098-12.279 22.591-30.021 23.867-48.474 1.387.445 2.641 1.187 3.754 2.13-1.811 19.182-11.132 37.377-25.97 50.026a787.23 787.23 0 0 0 3.579 7.865c3.038 6.566 6.143 13.16 9.404 19.679 11.383-9.122 20.902-21.237 23.804-35.353.717.015 1.42.14 2.092.374.582.205 1.133.47 1.66.783-3.243 15.085-13.524 28.034-25.768 37.736Z"/><path fill="#E08675" d="M355.075 246.738c-.811 3.267-.479 6.699-.021 10.043.708 5.208 1.715 10.422 3.731 15.283 2.503 6.034 6.69 11.79 11.955 15.719a15.803 15.803 0 0 0 4.245 2.284c1.182.418 2.369.68 3.591.855 2.56.366 5.248.336 8.205.498 13.995.759 27.429-1.55 39.433-9.21 3.71-2.363 7.244-5.235 9.385-9.082 1.174-2.104 1.858-4.555 1.855-6.955a11.297 11.297 0 0 0-.579-3.669 9.643 9.643 0 0 0-.903-1.96c-3.082-5.099-9.88-6.37-15.837-6.347 7.727-1.266 14.991-5.208 20.257-11.005 2.982-3.282 5.403-7.483 5.381-11.853-.003-.482-.037-.96-.099-1.446a8.552 8.552 0 0 0-.616-2.222c-1.611-3.874-5.86-6.776-9.795-5.44 3.598-4.656 7.202-9.311 10.807-13.965 2.543-3.296 5.137-6.658 6.53-10.588 1.164-3.288 1.372-7.088-.006-10.24a9.688 9.688 0 0 0-.974-1.742 7.775 7.775 0 0 0-1.077-1.234c-2.641-2.498-6.939-3.355-9.872-1.23 2.545-6.177 5.116-12.457 5.811-19.102.688-6.646-.74-13.824-5.328-18.686a15.216 15.216 0 0 0-4.028-3.027 16.013 16.013 0 0 0-3.413-1.317c-3.678-.959-7.63-.553-10.728 1.639-3.766 2.677-5.586 7.281-7.124 11.638a377.448 377.448 0 0 0-5.963 18.383c.724-4.702-4.245-8.919-8.985-8.564a9.993 9.993 0 0 0-2.111.389c-1.248.373-2.422.98-3.485 1.759-2.171 1.58-3.914 3.862-5.009 6.331-1.928 4.352-2.229 9.212-2.508 13.959l-1.016 17.456c-.298-4.308-5.379-7.171-9.576-6.145-.221.057-.445.12-.664.193-1.275.409-2.428 1.092-3.451 1.958-2.054 1.753-3.55 4.274-4.322 6.906-1.221 4.143-.965 8.558-.696 12.865l1.426 23.049c-.788-2.601-3.613-4.105-6.352-4.008a6.241 6.241 0 0 0-1.923.344 8.548 8.548 0 0 0-1.526.72c-2.346 1.437-3.952 4.042-4.625 6.766Z"/><path fill="#D7594A" d="M383.389 274.659c-2.664 5.213-5.446 10.373-8.405 15.408 1.182.418 2.369.68 3.591.855a214.512 214.512 0 0 0 2.144-3.763 452.212 452.212 0 0 0 6.363-11.868 110.03 110.03 0 0 0 50.371-9.119 11.297 11.297 0 0 0-.579-3.669 106.344 106.344 0 0 1-47.994 9.282c4.578-9.034 8.884-18.225 12.971-27.508 15.419-1.302 30.355-5.663 43.921-12.94-.003-.482-.037-.96-.099-1.446a8.552 8.552 0 0 0-.616-2.222c-12.84 7.03-26.969 11.455-41.589 12.894 4.255-9.83 8.279-19.758 12.14-29.694.11-.273.214-.548.318-.823 14.258-3.865 26.138-12.542 36.668-22.61a9.688 9.688 0 0 0-.974-1.742 7.775 7.775 0 0 0-1.077-1.234c-9.556 9.215-20.274 17.341-33.001 21.383 4.456-11.692 8.639-23.494 12.452-35.408 2.944-9.192 5.541-18.519 7.132-28.018a16.013 16.013 0 0 0-3.413-1.317c-1.878 11.604-5.321 22.907-9.037 34.077a753.38 753.38 0 0 1-11.191 31.233c-3.642-2.474-5.611-6.335-7.168-10.424-1.767-4.653-3.231-9.473-4.531-14.269-1.53-5.645-2.651-11.37-2.984-17.134-1.248.373-2.422.98-3.485 1.759.52 6.238 1.883 12.424 3.63 18.47 2.496 8.627 4.903 20.053 13.216 25.001a744.697 744.697 0 0 1-13.678 32.884c-12.96-11.288-20.768-27.598-21.941-44.562-1.275.409-2.428 1.092-3.451 1.958 1.665 17.634 10.233 34.361 23.874 45.989a726.136 726.136 0 0 1-3.291 7.23c-2.793 6.036-5.647 12.098-8.645 18.091-10.464-8.386-19.215-19.523-21.883-32.5a6.241 6.241 0 0 0-1.923.344 8.548 8.548 0 0 0-1.526.72c2.982 13.869 12.434 25.773 23.69 34.692Z"/><path fill="#ECBF4C" d="M457.731 251.622c-3.086 1.613-5.675 4.179-8.229 6.516a207.768 207.768 0 0 0-7.706 7.43c-5.014 5.086-9.761 10.429-14.3 15.942-9.105 11.061-17.372 22.782-25.216 34.762-4.409 6.734-8.687 13.553-12.921 20.399-.813 1.315 1.258 2.536 2.07 1.22 14.845-24.062 30.358-47.932 49.875-68.526a212.399 212.399 0 0 1 8.483-8.47c2.884-2.718 6.205-5.187 8.674-8.292.414-.519-.065-1.328-.73-.981Z"/><path fill="#ECBF4C" d="M468.661 245.413c-1.443-2.095-4.981-1.637-7.17-1.183-5.165 1.071-9.671 4.565-13.358 8.4-2.704 2.814-5.126 5.914-7.268 9.193-2.117 3.239-4.13 6.79-5.029 10.578-.116.49.274.752.647.688.255.222.607.334 1.025.227a56.018 56.018 0 0 0 16.36-7.192 58.313 58.313 0 0 0 7.242-5.547c2.37-2.12 4.733-4.432 6.4-7.192 1.318-2.183 2.729-5.681 1.151-7.972ZM432.395 273.566c1.062-3.143 2.019-6.309 2.802-9.503a86.852 86.852 0 0 0 1.8-9.494c.359-2.769.483-5.708-.861-7.896-1.254-2.04-3.514-2.827-5.941-1.897-2.588.992-4.549 3.475-5.955 6.015-2.886 5.21-3.755 11.137-3.403 16.607.197 3.061.775 6.047 1.806 8.76a19.366 19.366 0 0 0 1.876 3.738 11.478 11.478 0 0 0 2.22 2.511c.114.163.266.29.441.365l.127.103c.166.131.347.073.48-.064.205-.058.416-.187.615-.41 2.136-2.384 3-5.896 3.993-8.835ZM418.932 287.387c-.019-3.221-.143-6.43-.434-9.609a84.196 84.196 0 0 0-1.352-9.284c-.547-2.655-1.363-5.393-3.289-6.975-1.796-1.476-4.12-1.483-6.054.139-2.061 1.729-3.076 4.629-3.563 7.406-1 5.695.077 11.411 2.131 16.321 1.149 2.747 2.625 5.305 4.429 7.469a18.835 18.835 0 0 0 2.905 2.837 11.144 11.144 0 0 0 2.832 1.603c.156.114.336.182.521.196.05.018.098.037.149.054.194.067.341-.043.42-.211.17-.118.322-.303.435-.571 1.207-2.866.889-6.363.87-9.375ZM406.837 303.649c-.351-3.202-.804-6.381-1.421-9.514a83.993 83.993 0 0 0-2.301-9.096c-.817-2.585-1.911-5.224-3.989-6.6-1.939-1.283-4.251-1.051-6.007.761-1.873 1.932-2.583 4.921-2.782 7.733-.409 5.768 1.251 11.343 3.799 16.015 1.426 2.614 3.157 5.007 5.175 6.974a18.805 18.805 0 0 0 3.181 2.523c.99.617 1.937 1.009 2.983 1.303.167.097.353.147.538.141l.154.038c.2.047.335-.078.397-.253a1.28 1.28 0 0 0 .374-.613c.904-2.972.227-6.418-.101-9.412ZM395.251 319.616c-.535-3.144-1.173-6.26-1.975-9.322a81.953 81.953 0 0 0-2.845-8.864c-.974-2.51-2.233-5.06-4.421-6.31-2.042-1.167-4.378-.818-6.061 1.063-1.795 2.005-2.349 4.993-2.395 7.781-.093 5.717 1.904 11.137 4.754 15.618 1.595 2.508 3.487 4.781 5.647 6.619a19.222 19.222 0 0 0 3.373 2.327c1.041.558 2.025.896 3.103 1.132.175.087.367.126.554.112.053.01.105.021.159.03.206.036.336-.094.389-.271.152-.141.275-.346.346-.625.752-2.983-.128-6.35-.628-9.29Z"/><path fill="#ECBF4C" d="M404.26 326.024c3.17-.354 6.34-.602 9.504-.677 3.12-.074 6.237.008 9.304.286 2.682.243 5.48.748 7.287 2.506 1.686 1.64 1.995 3.982.653 6.119-1.431 2.279-4.15 3.637-6.816 4.451-5.469 1.669-11.229 1.246-16.324-.255-2.851-.84-5.558-2.031-7.921-3.599a19.305 19.305 0 0 1-3.169-2.599 11.609 11.609 0 0 1-1.945-2.669 1.056 1.056 0 0 1-.26-.502l-.073-.144c-.092-.188-.002-.349.153-.448a1.25 1.25 0 0 1 .505-.505c2.659-1.548 6.139-1.633 9.102-1.964ZM415.364 309.845c3.207-.385 6.417-.659 9.624-.755a81.114 81.114 0 0 1 9.444.246c2.726.238 5.576.746 7.45 2.56 1.748 1.692 2.118 4.121.807 6.346-1.398 2.372-4.123 3.797-6.809 4.656-5.508 1.762-11.361 1.355-16.564-.174-2.911-.856-5.686-2.077-8.12-3.69a20.143 20.143 0 0 1-3.276-2.68 12.305 12.305 0 0 1-2.036-2.759 1.136 1.136 0 0 1-.276-.519c-.026-.05-.052-.098-.077-.149-.097-.194-.011-.362.144-.466a1.25 1.25 0 0 1 .5-.527c2.663-1.622 6.191-1.729 9.189-2.089ZM467.08 280.004c.208-2.417-1.059-4.881-3.623-6.494-4.512-2.838-10.73-1.613-15.618-.54a50.314 50.314 0 0 0-15.483 6.222 56.396 56.396 0 0 1-3.514 2.014c-.365.189-.764-.068-1.077.325-2.159 2.723 8.596 5.813 10.46 6.34 5.43 1.538 11.411 2.337 16.948 1.135 4.754-1.032 11.412-3.238 11.907-9.002ZM454.139 302.162c.679-2.235-.023-4.827-2.119-6.89-3.689-3.631-9.8-3.791-14.626-3.813a48.146 48.146 0 0 0-15.851 2.592 53.594 53.594 0 0 1-3.718 1.156c-.382.101-.708-.226-1.081.078-2.581 2.111 6.948 7.3 8.6 8.191 4.816 2.599 10.298 4.617 15.762 4.656 4.691.033 11.413-.639 13.033-5.97ZM318.911 78.155l-98.864 103.942 68.862 65.498 98.864-103.943-68.862-65.497Z"/><path fill="#E5B340" d="m288.902 247.606 10.456-89.043 88.409-14.894-98.865 103.937Z"/><path fill="#DFA331" d="m220.043 182.108 85.983-9.14a9.019 9.019 0 0 0 8.052-8.465l4.831-86.332-98.866 103.937Z"/><path fill="#C3B7FC" d="M397.324 339.994h-83.999a3.078 3.078 0 0 1-3.078-3.078V199.285c0-1.7 1.378-3.078 3.078-3.078h83.999c1.7 0 3.078 1.378 3.078 3.078v137.631c0 1.7-1.378 3.078-3.078 3.078Z"/><path fill="#363271" d="M394.809 203.153h-78.968v116.44h78.968v-116.44Z"/><path fill="#fff" d="M394.809 319.594h-78.968V203.153l78.968 116.441Z" opacity=".08"/><path fill="#363271" d="M363.057 329.629a7.732 7.732 0 1 1-15.465 0 7.732 7.732 0 0 1 15.465 0Z"/><path fill="#fff" d="M385.064 154.782c-22.393 0-40.546 13.615-40.546 30.41 0 8.94 5.144 16.978 13.332 22.542.159 2.531.532 5.108.631 6.327a70.531 70.531 0 0 0 1.555 10.073c.245 1.068 1.66 1.294 2.227.356a121.366 121.366 0 0 1 7.596-11.101c4.696 1.426 9.828 2.213 15.206 2.213 22.393 0 40.546-13.615 40.546-30.41-.001-16.795-18.154-30.41-40.547-30.41Z"/><path fill="#C3B7FC" d="M372.258 184.658a6.758 6.758 0 1 1-13.517 0 6.758 6.758 0 0 1 13.517 0ZM393.599 184.658a6.758 6.758 0 1 1-13.517 0 6.758 6.758 0 0 1 13.517 0ZM414.939 184.658a6.758 6.758 0 1 1-13.516 0 6.758 6.758 0 0 1 13.516 0Z"/><path fill="#DD6E5C" d="M353.36 275.475c-.48 1-.98 2-1.49 3-2.64 5.12-8.93 7.12-14.04 4.46L310 268.455l-.3-.16c-5.21-2.71-7.13-9.21-4.23-14.33l1.31-2.32 2.04-3.6c.56-.99.94-2.08 1.08-3.21.53-4.21-.08-13.59-15.78-14.44h-76.85c-14.81.8-16.19 9.19-15.86 13.68.12 1.5.58 2.95 1.32 4.25l2 3.54 1.2 2.1c2.89 5.12.97 11.62-4.24 14.33l-.13.07-28 14.57c-5.1 2.66-11.4.66-14.03-4.46-.48-.93-.94-1.85-1.39-2.77-5.39-11.11-8.37-21.79-3.81-34.28 2.93-7.98 9.23-14.29 17.17-17.32 30.31-11.57 59.11-15.18 84.2-14.79 25.08-.39 53.88 3.22 84.19 14.79 7.95 3.03 14.24 9.34 17.17 17.32 4.53 12.4 1.63 23.03-3.7 34.05Z"/><path fill="#E08675" d="m201.688 268.298-28.126 14.639c-5.105 2.657-11.401.659-14.036-4.463a119.14 119.14 0 0 1-1.383-2.772l46.592-23.84 1.191 2.102c2.898 5.118.977 11.622-4.238 14.334ZM353.359 275.478c-.478.993-.977 1.992-1.493 2.997-2.635 5.121-8.931 7.119-14.036 4.463l-28.126-14.639c-5.215-2.712-7.136-9.216-4.238-14.332l1.317-2.322 46.576 23.833Z"/><path fill="#C1463D" d="M316.94 247.285c-.94 4.4-3.84 8.09-5.7 12.19-1.25 2.77-1.92 6.12-1.24 8.98l-.3-.16c-5.21-2.71-7.13-9.21-4.23-14.33l1.31-2.32 2.04-3.6c.56-.99.94-2.08 1.08-3.21.53-4.21-.08-13.59-15.78-14.44h-76.85c-14.81.8-16.19 9.19-15.86 13.68.12 1.5.58 2.95 1.32 4.25l2 3.54 1.2 2.1c2.89 5.12.97 11.62-4.24 14.33l-.13.07c.36-.7.61-1.46.73-2.28.51-3.29-1.18-6.48-2.74-9.43-3.51-6.66-6.64-14.58-3.68-21.5 2.34-5.46 8.02-8.83 13.78-10.31 5.44-1.4 11.12-1.45 16.74-1.49 17.57-.14 35.15-.27 52.72-.4 8.67-.06 17.67-.05 25.51 3.64 7.85 3.69 14.14 12.21 12.32 20.69Z" opacity=".3"/><path fill="#C64B42" d="M334.19 312.955v23.773a3.74 3.74 0 0 1-3.743 3.744H180.395a3.742 3.742 0 0 1-3.744-3.744v-23.773c0-1.29.67-2.486 1.767-3.167 31.81-19.728 38.979-74.263 40.28-87.634a3.307 3.307 0 0 1 3.288-2.992h7.69a7.049 7.049 0 0 1 7.048 7.048v6.774a3.74 3.74 0 0 0 3.738 3.744h29.916a3.74 3.74 0 0 0 3.738-3.744v-6.774a7.049 7.049 0 0 1 7.048-7.048h7.691a3.307 3.307 0 0 1 3.288 2.992c1.301 13.372 8.47 67.906 40.28 87.634a3.73 3.73 0 0 1 1.767 3.167Z"/><path fill="#fff" d="M254.597 315.222c18.493 0 33.484-14.991 33.484-33.484 0-18.493-14.991-33.484-33.484-33.484-18.492 0-33.484 14.991-33.484 33.484 0 18.493 14.992 33.484 33.484 33.484Z"/><path fill="#E4E4E4" d="M267.769 281.735c0 4.84-2.6 9.06-6.48 11.35a13.104 13.104 0 0 1-6.69 1.83c-7.28 0-13.18-5.9-13.18-13.18 0-5.28 3.11-9.84 7.6-11.93 1.69-.8 3.59-1.24 5.58-1.24 7.27 0 13.17 5.9 13.17 13.17ZM238.13 281.464a6.313 6.313 0 1 1-12.626-.002 6.313 6.313 0 0 1 12.626.002ZM283.689 281.464a6.313 6.313 0 1 1-12.626-.002 6.313 6.313 0 0 1 12.626.002ZM254.597 297.931a6.313 6.313 0 1 1 0 12.626 6.313 6.313 0 0 1 0-12.626ZM254.597 252.371a6.313 6.313 0 1 1 0 12.626 6.313 6.313 0 0 1 0-12.626ZM266.241 293.108a6.313 6.313 0 1 1 8.927 8.928 6.313 6.313 0 0 1-8.927-8.928ZM234.026 260.892a6.313 6.313 0 1 1 8.927 8.928 6.313 6.313 0 0 1-8.927-8.928ZM266.24 269.819a6.313 6.313 0 1 1 8.928-8.927 6.313 6.313 0 0 1-8.928 8.927ZM234.026 302.035a6.313 6.313 0 1 1 8.928-8.927 6.313 6.313 0 0 1-8.928 8.927Z"/><path fill="#DD6E5C" d="M334.19 325.651v11.077a3.74 3.74 0 0 1-3.743 3.744H180.395a3.742 3.742 0 0 1-3.744-3.744v-11.077H334.19Z"/><path fill="#fff" d="M261.289 293.085a13.104 13.104 0 0 1-6.69 1.83c-7.28 0-13.18-5.9-13.18-13.18 0-5.28 3.11-9.84 7.6-11.93l12.27 23.28Z" opacity=".41"/><path fill="#fff" d="M125.639 150.024c14.605 0 26.444 8.88 26.444 19.833 0 5.83-3.355 11.073-8.695 14.702-.104 1.651-.347 3.332-.411 4.126a46.007 46.007 0 0 1-1.014 6.57.792.792 0 0 1-1.452.232 79.11 79.11 0 0 0-4.954-7.24c-3.063.93-6.41 1.443-9.917 1.443-14.605 0-26.444-8.88-26.444-19.833 0-10.954 11.838-19.833 26.443-19.833Z"/><path fill="#C3B7FC" d="M133.99 169.509a4.407 4.407 0 1 0 8.814 0 4.407 4.407 0 0 0-8.814 0ZM120.072 169.509a4.407 4.407 0 1 0 8.814 0 4.407 4.407 0 0 0-8.814 0ZM106.154 169.509a4.407 4.407 0 1 0 8.814 0 4.407 4.407 0 0 0-8.814 0Z"/><path fill="#E08675" d="M26.234 243.374c3.46 1.808 6.363 4.685 9.226 7.305a233.366 233.366 0 0 1 8.64 8.331c5.622 5.702 10.944 11.693 16.033 17.875 10.209 12.401 19.478 25.544 28.273 38.975 4.944 7.551 9.74 15.196 14.487 22.872.912 1.475-1.41 2.844-2.321 1.368-16.644-26.979-34.038-53.742-55.92-76.832a237.95 237.95 0 0 0-9.512-9.497c-3.233-3.047-6.957-5.816-9.725-9.297-.464-.583.073-1.49.819-1.1Z"/><path fill="#E08675" d="M13.978 236.412c1.618-2.349 5.585-1.835 8.04-1.326 5.792 1.201 10.843 5.118 14.977 9.418 3.032 3.155 5.747 6.631 8.149 10.307 2.374 3.631 4.63 7.613 5.638 11.86.13.549-.307.843-.725.771-.286.249-.68.375-1.15.254-6.442-1.662-12.655-4.392-18.342-8.064a65.336 65.336 0 0 1-8.12-6.22c-2.657-2.377-5.306-4.969-7.176-8.064-1.477-2.446-3.06-6.368-1.291-8.936ZM54.64 267.977c-1.19-3.524-2.264-7.074-3.142-10.654-.867-3.531-1.558-7.095-2.018-10.645-.402-3.104-.54-6.399.966-8.852 1.406-2.288 3.94-3.17 6.661-2.128 2.902 1.112 5.1 3.896 6.677 6.744 3.236 5.841 4.21 12.488 3.816 18.621-.22 3.432-.869 6.779-2.024 9.821a21.804 21.804 0 0 1-2.104 4.192 12.89 12.89 0 0 1-2.489 2.815 1.177 1.177 0 0 1-.494.41l-.142.115c-.187.146-.389.082-.539-.072-.23-.065-.466-.21-.69-.46-2.396-2.674-3.365-6.612-4.478-9.907ZM69.734 283.473c.022-3.612.16-7.209.487-10.774.322-3.516.815-7.005 1.516-10.41.613-2.977 1.528-6.046 3.687-7.821 2.014-1.655 4.62-1.662 6.788.156 2.312 1.939 3.448 5.19 3.995 8.303 1.122 6.386-.086 12.795-2.389 18.299-1.288 3.08-2.943 5.948-4.966 8.375a21.12 21.12 0 0 1-3.257 3.181 12.471 12.471 0 0 1-3.176 1.797 1.138 1.138 0 0 1-.583.219l-.167.061c-.218.076-.383-.048-.47-.237-.192-.132-.362-.34-.489-.641-1.354-3.21-.996-7.131-.976-10.508ZM83.297 301.706c.394-3.591.902-7.154 1.593-10.667a94.568 94.568 0 0 1 2.579-10.199c.916-2.898 2.143-5.857 4.473-7.399 2.174-1.439 4.767-1.178 6.736.854 2.1 2.167 2.896 5.517 3.119 8.671.458 6.467-1.403 12.718-4.26 17.956-1.599 2.931-3.54 5.613-5.802 7.819a21.131 21.131 0 0 1-3.567 2.829 12.527 12.527 0 0 1-3.344 1.461 1.135 1.135 0 0 1-.603.158c-.058.014-.114.03-.173.043-.224.053-.376-.087-.445-.284-.176-.151-.324-.376-.42-.688-1.013-3.333-.254-7.196.114-10.554ZM96.287 319.608c.6-3.525 1.315-7.018 2.214-10.451.886-3.385 1.94-6.719 3.19-9.938 1.092-2.814 2.503-5.673 4.957-7.076 2.289-1.309 4.909-.917 6.796 1.192 2.012 2.248 2.634 5.599 2.685 8.724.105 6.41-2.135 12.487-5.33 17.512-1.788 2.812-3.91 5.36-6.331 7.421a21.588 21.588 0 0 1-3.782 2.609 12.96 12.96 0 0 1-3.48 1.269 1.181 1.181 0 0 1-.62.125l-.178.034c-.231.04-.377-.106-.436-.303a1.407 1.407 0 0 1-.388-.701c-.844-3.344.142-7.12.703-10.417Z"/><path fill="#E08675" d="M86.186 326.794c-3.554-.397-7.109-.675-10.656-.759-3.498-.083-6.994.009-10.432.321-3.007.273-6.144.839-8.17 2.81-1.89 1.838-2.237 4.464-.732 6.86 1.605 2.555 4.653 4.078 7.643 4.991 6.132 1.871 12.59 1.397 18.303-.285 3.197-.942 6.232-2.277 8.882-4.035a21.599 21.599 0 0 0 3.552-2.914 12.955 12.955 0 0 0 2.181-2.993c.148-.162.25-.357.292-.563.027-.054.055-.107.081-.162.103-.211.002-.391-.171-.503a1.399 1.399 0 0 0-.566-.566c-2.983-1.736-6.884-1.831-10.207-2.202ZM73.736 308.653c-3.596-.431-7.195-.739-10.791-.846-3.547-.106-7.094-.03-10.59.275-3.055.266-6.251.837-8.352 2.871-1.96 1.897-2.375 4.62-.905 7.115 1.567 2.66 4.623 4.258 7.634 5.221 6.175 1.976 12.738 1.519 18.572-.196 3.264-.959 6.375-2.328 9.104-4.138a22.586 22.586 0 0 0 3.672-3.004c.96-.979 1.66-1.967 2.283-3.094.154-.167.262-.369.309-.582l.087-.167c.109-.218.012-.406-.162-.522a1.404 1.404 0 0 0-.561-.591c-2.983-1.819-6.938-1.939-10.3-2.342ZM15.752 275.196c-.233-2.71 1.187-5.473 4.062-7.281 5.058-3.182 12.03-1.809 17.511-.605a56.423 56.423 0 0 1 17.36 6.977c1.3.797 2.59 1.557 3.94 2.258.41.212.857-.076 1.208.364 2.42 3.053-9.639 6.517-11.727 7.109-6.089 1.724-12.794 2.62-19.003 1.273-5.332-1.158-12.796-3.632-13.35-10.095ZM30.262 300.039c-.762-2.506.026-5.411 2.376-7.725 4.136-4.071 10.988-4.25 16.4-4.275 6.04-.027 12.077.948 17.771 2.906 1.386.477 2.754.921 4.17 1.296.427.113.792-.253 1.211.088 2.894 2.367-7.79 8.184-9.643 9.184-5.399 2.914-11.546 5.177-17.673 5.22-5.26.037-12.796-.716-14.612-6.694Z"/><path fill="#DFA331" d="M72.688 180.077c2.569 2.484 4.372 5.762 6.207 8.805a212.46 212.46 0 0 1 5.426 9.553c3.458 6.463 6.578 13.102 9.443 19.848 5.748 13.533 10.48 27.474 14.72 41.546 2.383 7.91 4.613 15.866 6.791 23.835.419 1.532-1.975 2.131-2.392.599-7.62-28-15.954-56.004-29.181-81.947a218.6 218.6 0 0 0-5.889-10.803c-2.049-3.513-4.6-6.909-6.129-10.682-.256-.632.45-1.289 1.004-.754Z"/><path fill="#DFA331" d="M63.732 170.789c2.03-1.643 5.38-.164 7.402.919 4.773 2.556 8.193 7.303 10.708 12.15 1.844 3.555 3.327 7.311 4.483 11.161 1.143 3.803 2.091 7.884 1.876 11.874-.028.516-.488.66-.836.489-.315.145-.695.153-1.075-.075a57.488 57.488 0 0 1-14.014-11.834 59.929 59.929 0 0 1-5.517-7.565c-1.717-2.776-3.37-5.738-4.21-8.939-.663-2.531-1.035-6.384 1.183-8.18ZM91.25 209.04c-.132-3.403-.153-6.797.004-10.168.154-3.325.47-6.633.986-9.869.452-2.83 1.185-5.759 3.143-7.522 1.827-1.644 4.28-1.761 6.4-.141 2.259 1.728 3.467 4.742 4.114 7.652 1.327 5.967.46 12.054-1.476 17.336-1.083 2.956-2.521 5.727-4.323 8.098a20.008 20.008 0 0 1-2.933 3.134c-.94.8-1.869 1.357-2.916 1.827a1.09 1.09 0 0 1-.54.232l-.154.064c-.203.08-.363-.029-.455-.203-.184-.116-.354-.305-.486-.583-1.41-2.968-1.24-6.676-1.364-9.857ZM100.485 226.556c.955-3.165 2.009-6.288 3.22-9.333a86.374 86.374 0 0 1 4.029-8.746c1.31-2.455 2.909-4.912 5.264-5.91 2.197-.931 4.487-.262 5.919 1.896 1.527 2.301 1.682 5.45 1.356 8.325-.67 5.897-3.392 11.21-6.84 15.446-1.93 2.37-4.126 4.459-6.531 6.066a19.33 19.33 0 0 1-3.684 1.949 11.425 11.425 0 0 1-3.254.754 1.048 1.048 0 0 1-.569.042l-.162.01c-.211.01-.323-.142-.352-.33a1.307 1.307 0 0 1-.262-.689c-.357-3.17.973-6.52 1.866-9.48ZM107.666 246.079c1.276-3.05 2.646-6.047 4.164-8.952a86.452 86.452 0 0 1 4.908-8.285c1.555-2.307 3.399-4.587 5.845-5.337 2.281-.7 4.49.201 5.692 2.495 1.282 2.446 1.112 5.595.491 8.421-1.274 5.797-4.528 10.802-8.394 14.66-2.163 2.159-4.563 4.011-7.12 5.361a19.321 19.321 0 0 1-3.865 1.559c-1.154.32-2.2.43-3.315.416a1.039 1.039 0 0 1-.57-.017l-.163-.007c-.211-.012-.307-.174-.317-.365a1.308 1.308 0 0 1-.19-.712c-.027-3.19 1.641-6.385 2.834-9.237ZM114.432 265.163c1.441-2.94 2.974-5.821 4.653-8.602a84.03 84.03 0 0 1 5.376-7.898c1.689-2.188 3.668-4.332 6.186-4.927 2.349-.556 4.547.467 5.657 2.807 1.184 2.495.862 5.598.096 8.355-1.57 5.655-5.111 10.409-9.218 13.993-2.298 2.005-4.822 3.692-7.482 4.874a19.759 19.759 0 0 1-3.997 1.311 11.92 11.92 0 0 1-3.383.213 1.087 1.087 0 0 1-.578-.051c-.055-.006-.109-.01-.165-.017-.213-.024-.303-.19-.304-.379a1.275 1.275 0 0 1-.159-.716c.126-3.156 1.971-6.215 3.318-8.963Z"/><path fill="#DFA331" d="M103.701 268.853c-3.017-1.27-6.066-2.435-9.159-3.428a83.7 83.7 0 0 0-9.242-2.422c-2.71-.54-5.611-.856-7.901.349-2.136 1.124-3.121 3.34-2.421 5.833.747 2.659 3.028 4.786 5.416 6.362 4.898 3.232 10.691 4.49 16.143 4.493 3.05.002 6.061-.384 8.843-1.24a19.748 19.748 0 0 0 3.874-1.638 11.896 11.896 0 0 0 2.691-2.062c.172-.104.312-.248.402-.418.038-.041.076-.079.113-.121.145-.158.104-.343-.02-.486a1.282 1.282 0 0 0-.35-.644c-2.167-2.297-5.568-3.391-8.389-4.578ZM97.473 249.7c-3.045-1.311-6.125-2.513-9.254-3.54a83.188 83.188 0 0 0-9.368-2.503c-2.752-.558-5.705-.886-8.078.355-2.213 1.158-3.282 3.441-2.638 6.012.687 2.742 2.955 4.936 5.349 6.562 4.91 3.335 10.789 4.635 16.355 4.642 3.115.004 6.2-.392 9.065-1.273a20.658 20.658 0 0 0 4.003-1.686 12.647 12.647 0 0 0 2.806-2.124c.179-.107.326-.256.423-.431l.119-.124c.152-.163.116-.353-.007-.501a1.28 1.28 0 0 0-.339-.664c-2.148-2.369-5.589-3.5-8.436-4.725ZM55.238 205.297c.498-2.44 2.46-4.497 5.453-5.34 5.266-1.483 11.03 1.53 15.53 4.007a51.663 51.663 0 0 1 13.433 10.624 57.825 57.825 0 0 0 2.874 3.003c.304.292.772.155.966.633 1.334 3.308-10.151 3.224-12.138 3.202-5.792-.064-11.911-1.016-17.013-3.808-4.381-2.396-10.293-6.502-9.105-12.321ZM61.536 230.87c-.019-2.398 1.425-4.744 4.088-6.166 4.686-2.502 10.748-.884 15.505.497a49.43 49.43 0 0 1 14.85 7.158 54.852 54.852 0 0 0 3.324 2.218c.347.211.762-.017 1.042.391 1.927 2.828-8.96 5.166-10.846 5.564-5.495 1.159-11.479 1.553-16.868.002-4.628-1.331-11.049-3.946-11.095-9.664Z"/><path fill="#ECBF4C" d="M370.747 336.921c-1.14 1.664-2.835 2.85-4.56 3.882-6.64 4.006-13.912 6.64-21.431 8.212-.647.154-1.309.293-1.972.401a82.786 82.786 0 0 1-6.995 1.032c-.57.077-1.156.123-1.726.169a86.47 86.47 0 0 1-3.959.293c-.524.031-1.033.047-1.541.062-2.465.093-4.93.108-7.38.046-.432 0-.848-.015-1.263-.03-.108 0-.201 0-.308-.016a86.406 86.406 0 0 1-3.898-.185c-.601-.015-1.202-.061-1.818-.107a128.24 128.24 0 0 1-5.808-.539 84.906 84.906 0 0 1-4.36-.631 50.135 50.135 0 0 1-3.682-.694c-10.075-2.111-19.658-6.193-26.021-14.082-1.263-1.556-2.419-3.99-2.342-5.793.015-.601.185-1.14.539-1.54.554-.663 1.602-.986 3.312-.74 7.719 1.14 14.975 5.022 21.954 8.303.909.416 1.726-.724 1.017-1.432-6.871-6.933-12.833-14.636-14.651-24.219-.139-.709-.231-1.479-.108-2.188a2.605 2.605 0 0 1 .801-1.525c.092-.062.185-.139.277-.216.662-.493 1.494-.678 2.311-.601 1.726.139 3.112 1.217 4.391 2.326 5.793 5.039 10.522 12.002 15.021 18.565.647.94 2.126.308 1.864-.801-1.556-7.056-2.974-14.636-3.636-21.507-.37-3.821-.385-8.057 2.018-11.046.108-.138.231-.277.354-.385.216-.2.462-.37.74-.416.262-.047.524 0 .77.108.308.139.601.354.863.57 3.405 2.927 5.5 7.364 6.809 11.662 1.834 6.04 4.345 13.034 5.716 19.612.092.447.77.385.77-.077.216-10.276 2.049-20.968 7.395-29.534.709-1.125 1.895-1.895 3.22-1.957.262-.016.508 0 .74.046.57.093 1.048.323 1.448.678 1.449 1.202 1.91 3.744 1.926 5.824.077 7.996-.585 18.133-1.957 26.699-.138.863 1.017 1.248 1.433.493 4.114-7.718 9.105-16.439 16.069-20.49 1.957-1.14 4.375-2.08 6.393-.447.247.2.462.431.647.678.37.462.632 1.001.786 1.572a.118.118 0 0 1 .031.062c.647 2.373-.185 4.668-1.11 6.825a72.267 72.267 0 0 1-13.804 20.999c-.724.755.154 1.941 1.078 1.48 4.006-1.926 7.888-3.791 12.048-5.808 2.049-1.002 4.175-2.018 6.455-2.158 2.188-.138 4.576.725 5.654 2.589.061.093.108.169.154.262.17.354.309.74.37 1.125.328 1.555-.15 3.25-1.044 4.589Z"/><path fill="#E58F31" d="M321.185 351.018c-.432 0-.848-.015-1.263-.03-.108 0-.201 0-.308-.016a1134.364 1134.364 0 0 0-12.464-59.037c.216-.2.462-.37.74-.416.262-.047.524 0 .77.108a1117.259 1117.259 0 0 1 12.525 59.391ZM335.62 292.628c-2.203 11.015-3.743 21.923-4.298 33.201-.401 8.365-.817 16.731-1.217 25.081-.524.031-1.033.047-1.541.062.416-8.874.847-17.748 1.294-26.607.555-11.016 2.157-21.677 4.314-32.415a2.82 2.82 0 0 1 1.448.678ZM360.918 306.956c-5.439 7.857-10.985 15.668-15.946 23.833-3.805 6.271-6.687 12.88-9.182 19.659-.57.077-1.156.123-1.726.169 2.419-6.671 5.192-13.188 8.843-19.366 5.269-8.905 11.339-17.348 17.224-25.867.371.463.633 1.002.787 1.572ZM315.717 350.787c-.601-.015-1.202-.061-1.818-.107-8.566-15.437-19.936-29.134-30.151-43.554a2.605 2.605 0 0 1 .801-1.525c10.553 14.959 22.401 29.102 31.168 45.186ZM303.73 349.509a50.135 50.135 0 0 1-3.682-.694c-9.521-6.517-19.288-12.68-28.363-19.874.015-.601.185-1.14.539-1.54 10.045 8.041 20.968 14.774 31.506 22.108ZM371.795 332.33c-2.28 1.017-4.637 1.942-6.732 3.051a131.31 131.31 0 0 0-11.262 6.671c-3.158 2.08-6.409 4.222-9.044 6.964-.647.154-1.309.293-1.972.401 2.203-2.619 4.776-4.961 7.934-7.149a132.783 132.783 0 0 1 12.341-7.565c2.557-1.387 5.469-2.48 8.212-3.759.061.093.108.169.154.262.169.354.307.739.369 1.124Z"/><path fill="#F0C9A1" d="M202.46 308.801c-.224.267-.586.375-.927.465-3.652.953-7.403 1.354-11.18 1.522-1.375.065-2.755.095-4.13.108-1.293.017-2.587.021-3.876.021-7.446 0-14.887-.013-22.333-.039l-3.289-.013c-.703 0-1.401-.005-2.104-.009-4.398-.017-8.826-.047-13.141-.892-.285-.056 1.367-16.896 1.522-18.548.621-6.644 1.449-13.284 2.932-19.794 1.168-5.122 2.725-10.684 5.23-15.603 2.733-5.368 6.592-9.972 12.305-12.404.211-.091.427-.177.642-.263 4.6-1.789 9.658-2.518 14.529-1.733 1.518.246 2.928.629 4.242 1.134 9.257 3.549 13.671 13.09 15.793 22.808 3.014 13.775 3.566 27.968 4.048 42.002.017.431.017.905-.263 1.238Z"/><path fill="#363271" d="M152.453 229.516c-1.851-2.7-2.305-6.006-2.768-9.155-1.494-10.151 2.759-21.369 13.525-25.262 5.867-2.121 12.691-2.545 18.55-.182 11.216 4.524 13.416 15.818 12.815 26.11-.271 4.637-1.927 9.117-5.216 12.719-2.6 2.848-5.654 4.972-9.71 5.62-9.964 1.592-20.266.257-27.196-9.85Z"/><path fill="#F0C9A1" d="M180.007 226.134v18.755a6.684 6.684 0 0 1-13.366 0v-18.755h13.366Z"/><path fill="#E9B588" d="M180.007 229.686v12.938c-2.845.862-5.769 1.483-8.73 1.423-1.526-.03-3.126-.25-4.635-.711v-11.52a16.799 16.799 0 0 1 2.35-.892 30.39 30.39 0 0 1 11.015-1.238Z"/><path fill="#F0C9A1" d="M155.308 219.882c0 12.025 6.383 21.773 16.383 21.773 10.001 0 18.108-9.748 18.108-21.773s-8.107-21.773-18.108-21.773c-10 .001-16.383 9.749-16.383 21.773Z"/><path fill="#F0C9A1" d="M185.197 221.915c-.829 3.474.752 6.828 3.531 7.491 2.779.663 5.705-1.615 6.533-5.09.829-3.474-.752-6.828-3.531-7.491-2.779-.663-5.704 1.616-6.533 5.09ZM150.275 224.316c-.829-3.474.752-6.828 3.531-7.491 2.779-.663 5.704 1.616 6.533 5.09.829 3.474-.752 6.828-3.531 7.491-2.779.663-5.704-1.615-6.533-5.09Z"/><path fill="#fff" d="M180.144 215.278c-2.958 0-5.441 2.043-6.132 4.789h-3.474c-.69-2.747-3.174-4.789-6.132-4.789a6.336 6.336 0 0 0-6.329 6.329 6.336 6.336 0 0 0 6.329 6.329 6.336 6.336 0 0 0 6.329-6.329c0-.058-.007-.114-.009-.171h3.096c-.001.057-.009.113-.009.171a6.336 6.336 0 0 0 6.329 6.329 6.336 6.336 0 0 0 6.329-6.329 6.333 6.333 0 0 0-6.327-6.329Zm-15.737 11.289a4.967 4.967 0 0 1-4.961-4.961 4.967 4.967 0 0 1 4.961-4.961 4.967 4.967 0 0 1 4.961 4.961 4.967 4.967 0 0 1-4.961 4.961Zm15.737 0a4.967 4.967 0 0 1-4.961-4.961 4.967 4.967 0 0 1 4.961-4.961 4.967 4.967 0 0 1 4.961 4.961 4.967 4.967 0 0 1-4.961 4.961Z"/><path fill="#363271" d="M156.949 215.817c7.142-1.592 12.074-8.294 14.53-15.186a36.308 36.308 0 0 0 15.286 13.942c1.348.649 3.26 1.077 4.094-.165.305-.454.364-1.026.386-1.573.258-6.371-3.689-12.71-9.521-15.29-1.532-.678-3.165-1.112-4.817-1.391-5.737-.97-11.932.02-16.655 3.418-3.073 2.21-5.414 5.49-6.434 9.141-.885 3.167-1.768 8.196 3.131 7.104Z"/><path fill="#363271" d="M156.614 196.391c1.221 2.642 4.207 4.406 7.093 4.032 2.35-.304 4.454-1.872 6.824-1.865 2.168.007 4.098 1.327 6.205 1.84 3.226.785 6.863-.54 8.829-3.215 1.966-2.675 2.144-6.542.432-9.386-1.712-2.844-5.213-4.497-8.497-4.012-2.898.428-5.315 1.836-8.331 1.721-1.976-.075-3.932-.821-5.912-.5-5.116.827-8.916 6.467-6.643 11.385Z"/><path fill="#fff" d="M190.354 252.864v57.924c-1.375.065-2.755.095-4.13.108-1.293.017-2.587.021-3.876.021-7.446 0-14.887-.013-22.333-.039l-3.289-.013v-58.001h33.628Z"/><path fill="#E4E4E4" d="M189.28 278.585c-8.78 3.54-18.52 3.55-27.99 3.44.5-10.31 1.04-20.61 1.63-30.92.25.4.51.88.8 1.46 2.34 4.7 5.27 8.88 8.95 12.64 4.99 5.08 10.81 9.24 16.61 13.38Z" opacity=".37"/><path fill="#514E92" d="M163.47 243.615c.05 1.36-.31 3.05-.37 4.21-.06 1.09-.13 2.19-.18 3.28a3555.7 3555.7 0 0 0-2.91 59.77c-1.79 0-3.59-.01-5.39-.02-4.4-.02-8.83-.05-13.14-.89-.29-.06 1.37-16.9 1.52-18.55.62-6.64 1.45-13.28 2.93-19.79 1.17-5.12 2.73-10.69 5.23-15.6 2.74-5.37 6.59-9.98 12.31-12.41ZM202.46 308.801c-.224.267-.586.375-.927.465-4.984 1.302-10.149 1.574-15.31 1.63a3654.929 3654.929 0 0 0-3.083-63.067c-.082-1.427-.604-3.647-.259-5.075 9.257 3.549 13.671 13.09 15.793 22.808 3.014 13.775 3.566 27.968 4.048 42.002.018.43.018.904-.262 1.237Z"/><path fill="#fff" d="m185.194 235.238-1.075-1.329a18.874 18.874 0 0 0 6.702-14.459v-3.789c0-8.965-7.142-16.258-15.92-16.258h-5.404c-8.727 0-15.827 7.251-15.827 16.163v3.884h-1.689v-3.884c0-9.863 7.857-17.888 17.515-17.888h5.404c9.709 0 17.608 8.067 17.608 17.983v3.789c.001 6.111-2.665 11.866-7.314 15.788Z"/><path fill="#DFA331" d="M154.376 229.583h-2.631a2.356 2.356 0 0 1-2.349-2.349V215.98a2.356 2.356 0 0 1 2.349-2.349h2.631a2.356 2.356 0 0 1 2.349 2.349v11.253a2.356 2.356 0 0 1-2.349 2.35ZM193.61 229.583h-2.631a2.356 2.356 0 0 1-2.349-2.349V215.98a2.356 2.356 0 0 1 2.349-2.349h2.631a2.356 2.356 0 0 1 2.349 2.349v11.253a2.356 2.356 0 0 1-2.349 2.35ZM186.448 234.287a2.38 2.38 0 0 1-1.91 2.332l-2.539.5a2.382 2.382 0 0 1-2.785-1.867 2.357 2.357 0 0 1-.043-.457c0-.384.09-.75.263-1.078a2.356 2.356 0 0 1 1.647-1.255l2.539-.5a2.38 2.38 0 0 1 2.514 1.151 2.257 2.257 0 0 1 .314 1.174Z"/><path fill="#ECBF4C" d="M186.133 233.114a2.365 2.365 0 0 1-1.647 1.25l-2.539.5a2.367 2.367 0 0 1-2.514-1.147 2.356 2.356 0 0 1 1.647-1.255l2.539-.5a2.379 2.379 0 0 1 2.514 1.152Z" opacity=".41"/><path fill="#ECBF4C" d="M149.567 226.996h-.774a.693.693 0 0 1-.691-.691v-9.828c0-.38.311-.691.691-.691h.774c.38 0 .691.311.691.691v9.828c0 .38-.311.691-.691.691ZM196.13 226.996h-.774a.693.693 0 0 1-.691-.691v-9.828c0-.38.311-.691.691-.691h.774c.38 0 .691.311.691.691v9.828c0 .38-.311.691-.691.691Z"/><path fill="#5F5EA5" d="M144.83 217.955v44.61c0 .38-.1.73-.28 1.03a2.05 2.05 0 0 1-1.78 1.02h-63.6c-1.13 0-2.05-.92-2.05-2.05v-44.61c0-1.14.92-2.06 2.05-2.06h63.6c1.14 0 2.06.92 2.06 2.06Z"/><path fill="#fff" d="M144.55 263.595a2.05 2.05 0 0 1-1.78 1.02h-63.6c-1.13 0-2.05-.92-2.05-2.05v-44.61c0-1.14.92-2.06 2.05-2.06h3.94c.28.98.53 1.93.85 2.67 2.69 6.44 6.9 12.18 11.85 17.07 6.62 6.56 14.54 11.67 22.66 16.24 8.31 4.68 16.98 8.89 26.08 11.72Z" opacity=".06"/><path fill="#514E92" d="M121.582 242.938h-21.217l-4.028 30.391h29.273l-4.028-30.391Z"/><path fill="#5F5EA5" d="M116.56 255.228a5.587 5.587 0 1 1-11.174 0 5.587 5.587 0 0 1 11.174 0Z"/><path fill="#C3B7FC" d="m216.441 279.815-.51 5.16-.32 3.16-3.09 31.1-.53 5.29-.66 6.73-1.05 10.58-.73 7.36-.25 2.49H91.821l-.99-9.85-1.04-10.58-.67-6.73-.53-5.29-3.08-31.1-.32-3.16-.51-5.16h131.76Z"/><path fill="#A797FB" d="m216.437 279.817-.826 8.318h-130.1l-.827-8.318h131.753Z"/><path fill="#5F5EA5" d="m211.33 331.256-1.049 10.579H90.834l-1.048-10.579H211.33Z"/><path fill="#fff" d="m212.522 319.234-.529 5.29H89.122l-.53-5.29h123.93Z"/><path fill="#5F5EA5" d="m209.551 349.195-.25 2.49H91.821l-.99-9.85-1.04-10.58-.67-6.73-.53-5.29-3.08-31.1-.32-3.16-.51-5.16h18.37c.17.12.35.25.52.39 8.41 6.7 15.26 16.25 23.62 23.33a236.096 236.096 0 0 0 58.23 36.21c5.83 2.54 11.76 4.84 17.78 6.89 1.48.51 3.81 1.54 6.35 2.56Z" opacity=".11"/><path fill="#DFDBFC" d="M221.603 284.974H79.517a3.733 3.733 0 0 1-3.733-3.733v-4.18a3.733 3.733 0 0 1 3.733-3.733h142.086a3.733 3.733 0 0 1 3.733 3.733v4.18a3.733 3.733 0 0 1-3.733 3.733Z"/></svg>