<svg width="80" height="80" viewBox="0 0 80 80" fill="none" xmlns="http://www.w3.org/2000/svg">
<path fill-rule="evenodd" clip-rule="evenodd" d="M28.6116 31.2222C23.8557 31.2222 20.0005 35.077 20.0005 39.8327C20.0005 44.5886 23.8559 48.4441 28.6116 48.4441H37.2227V40.0063C37.222 39.9487 37.2217 39.8907 37.2217 39.8327C37.2217 39.775 37.222 39.7169 37.2227 39.6593V31.2222H28.6116ZM37.2227 26.2222H28.6116C23.8559 26.2222 20.0005 22.3668 20.0005 17.611C20.0005 12.8553 23.8559 9 28.6116 9H37.2227V26.2222ZM42.2227 9V26.222L50.8317 26.2216C55.5873 26.2216 59.444 22.3667 59.444 17.611C59.444 12.8553 55.5887 9 50.8327 9H42.2227ZM50.832 31.2216C46.1227 31.2221 42.2963 35.003 42.2227 39.6947V39.9707C42.2963 44.663 46.123 48.4441 50.8327 48.4441C55.5887 48.4441 59.444 44.5886 59.444 39.8327C59.444 35.077 55.5877 31.2217 50.832 31.2216ZM28.6116 53.4441C23.856 53.4441 20 57.2999 20 62.0559C20 66.8119 23.8553 70.6674 28.6111 70.6674C33.367 70.6674 37.2223 66.8119 37.2223 62.0559L37.2227 53.4441H28.6116Z" fill="#5A91FE"/>
</svg>
