<svg width="80" height="80" viewBox="0 0 80 80" fill="none" xmlns="http://www.w3.org/2000/svg">
<path d="M7 1L12.8471 70.4382L39.4956 78.381L66.0378 70.4382L72 1H7ZM59.7123 17.4714L59.287 21.8612L59.1364 23.6748H28.0052L28.7316 32.436H58.4188L58.1265 34.6961L56.2483 57.2221L56.0977 58.7288L39.531 63.5279V63.5558H39.4247L39.3981 63.5651V63.5558H39.3893L22.6808 58.7195L21.6708 45.2708H29.7416L30.3174 52.0789L39.3893 54.6551H39.4247L48.4611 52.0882L49.471 41.0577H39.3981V41.0484H21.2456L19.2257 17.4714L19.0751 15.2113H59.854L59.7123 17.4714Z" fill="#5A91FE"/>
</svg>
