<svg width="80" height="80" viewBox="0 0 80 80" fill="none" xmlns="http://www.w3.org/2000/svg">
<mask id="mask0_61_31" style="mask-type:luminance" maskUnits="userSpaceOnUse" x="1" y="1" width="77" height="77">
<path d="M1 1H78V78H1V1Z" fill="white"/>
</mask>
<g mask="url(#mask0_61_31)">
<path d="M36.9782 1.01965C36.8114 1.03569 36.2853 1.09023 35.8104 1.12553C24.8764 2.11369 14.6354 8.01382 8.14175 17.0838C4.5558 22.0622 2.22469 27.8328 1.3465 33.9051C1.0385 36.0226 1 36.645 1 39.5132C1 42.3815 1.0385 43.0071 1.3465 45.1214C3.43833 59.5814 13.7307 71.7281 27.6837 76.2294C30.183 77.0347 32.817 77.5833 35.8104 77.917C36.9782 78.0453 42.0217 78.0453 43.1896 77.917C48.3582 77.3427 52.7408 76.0626 57.0592 73.8584C57.7233 73.5216 57.8517 73.4285 57.7618 73.3547C55.6495 70.569 53.5586 67.767 51.4895 64.9489L45.3327 56.6297L37.6199 45.2112C35.0536 41.3921 32.4634 37.589 29.8493 33.8024C29.8205 33.7928 29.7916 38.8652 29.7755 45.0637C29.7531 55.9078 29.7435 56.3442 29.6087 56.6008C29.4773 56.9004 29.2428 57.1428 28.9478 57.2842C28.7072 57.4061 28.4986 57.4286 27.3597 57.4286H26.0571L25.7106 57.2104C25.4962 57.075 25.3222 56.8844 25.2069 56.6586L25.0465 56.3217L25.0625 41.2297L25.085 26.1313L25.3192 25.8361C25.4769 25.6516 25.6658 25.4963 25.8774 25.3773C26.1854 25.2265 26.3041 25.2137 27.6099 25.2137C29.1435 25.2137 29.4002 25.2714 29.798 25.7078C29.9103 25.8297 34.0875 32.1244 39.0861 39.7025L54.2744 62.7127L60.3702 71.9463L60.6814 71.7441C63.6151 69.7938 66.2749 67.4599 68.59 64.8045C73.4415 59.2518 76.5884 52.4176 77.6535 45.1214C77.9615 43.0039 78 42.3815 78 39.5132C78 36.645 77.9615 36.0226 77.6535 33.9051C75.5617 19.4483 65.2693 7.29836 51.3163 2.79707C48.7085 1.96794 46.0233 1.40573 43.3019 1.11911C42.5768 1.04211 37.6039 0.958693 36.9815 1.02286L36.9782 1.01965ZM52.7408 24.3121C52.9197 24.4023 53.079 24.5269 53.2095 24.6789C53.34 24.8309 53.4391 25.0072 53.5012 25.1976C53.5589 25.3902 53.575 29.577 53.5589 39.0095L53.5365 52.5423L51.1527 48.8848L48.7592 45.2273V35.3905C48.7592 29.0284 48.7881 25.4543 48.833 25.2811C48.8864 25.0807 48.9799 24.8932 49.1079 24.73C49.2358 24.5667 49.3955 24.4311 49.5774 24.3314C49.8886 24.171 50.0009 24.1581 51.1815 24.1581C52.2948 24.1581 52.4905 24.1774 52.7408 24.3121Z" fill="#5A91FE"/>
</g>
</svg>
