<svg width="80" height="80" viewBox="0 0 80 80" fill="none" xmlns="http://www.w3.org/2000/svg">
<g clip-path="url(#clip0_61_31)">
<path d="M33.3333 56.6667H30V31.6667L47.394 57.7577C48.9567 60.1017 51.8247 61.2107 54.558 60.5273L55.4043 60.3157C56.1463 60.13 56.6667 59.4633 56.6667 58.6987V23.3333C56.6667 23.3333 60 23.3333 60 20H50C46.6667 20 46.6667 23.3333 46.6667 23.3333H50V43.3333L33.832 20.6979C33.519 20.2599 33.0142 20 32.4759 20H23.3333C20 20 20 23.3333 20 23.3333H23.3333V56.6667C23.3333 56.6667 20 56.6667 20 60H30C33.3333 60 33.3333 56.6667 33.3333 56.6667Z" fill="#5A91FE"/>
<path fill-rule="evenodd" clip-rule="evenodd" d="M3.33398 13.3331C3.33398 7.81018 7.81115 3.33301 13.334 3.33301H66.6673C72.1903 3.33301 76.6673 7.81018 76.6673 13.3331V66.6664C76.6673 72.1894 72.1903 76.6664 66.6673 76.6664H13.334C7.81115 76.6664 3.33398 72.1894 3.33398 66.6664V13.3331ZM13.334 9.99968H66.6673C68.5083 9.99968 70.0006 11.4921 70.0006 13.3331V66.6664C70.0006 68.5074 68.5083 69.9997 66.6673 69.9997H13.334C11.4931 69.9997 10.0007 68.5074 10.0007 66.6664V13.3331C10.0007 11.4921 11.4931 9.99968 13.334 9.99968Z" fill="#5A91FE"/>
</g>
<defs>
<clipPath id="clip0_61_31">
<rect width="79.444" height="79.6674" fill="white"/>
</clipPath>
</defs>
</svg>
