<svg width="80" height="80" viewBox="0 0 80 80" fill="none" xmlns="http://www.w3.org/2000/svg">
<path d="M46.6546 39.5084C46.6546 41.4221 45.8992 43.2576 44.5546 44.6111C43.2099 45.9646 41.386 46.7254 39.484 46.7263C37.5813 46.7263 35.7566 45.9658 34.4113 44.6122C33.0659 43.2586 32.3101 41.4227 32.3101 39.5084C32.3101 37.5947 33.0655 35.7592 34.4102 34.4057C35.7548 33.0522 37.5787 32.2914 39.4808 32.2905C41.3834 32.2905 43.2081 33.051 44.5534 34.4046C45.8988 35.7582 46.6546 37.5941 46.6546 39.5084ZM55.1502 5.00066C50.8318 5.00066 45.182 8.09958 39.4679 13.4646C33.7571 8.12863 28.104 5.06522 23.7888 5.06522C22.4734 5.06522 21.2767 5.36543 20.2404 5.96262C15.8289 8.52245 14.8408 16.4989 17.1187 26.5091C7.3525 29.5434 1 34.3952 1 39.5084C1 44.641 7.38458 49.5056 17.1796 52.5174C14.921 62.5663 15.9284 70.5557 20.3495 73.1123C21.3761 73.7159 22.5632 74 23.885 74C28.2002 74 33.8533 70.9011 39.5674 65.5296C45.2782 70.8688 50.9313 73.9322 55.2465 73.9322C56.5619 73.9322 57.7586 73.6417 58.7949 73.0445C63.2032 70.4879 64.1945 62.5114 61.9166 52.498C71.6475 49.4895 78 44.6281 78 39.5084C78 34.3758 71.6154 29.5112 61.8204 26.4929C64.079 16.4537 63.0716 8.45789 58.6505 5.89806C57.5818 5.29331 56.3763 4.98371 55.1502 5.00066ZM55.1342 8.51922V8.53859C55.8561 8.53859 56.4368 8.68062 56.9245 8.94855C59.0612 10.1817 59.9884 14.872 59.2665 20.9052C59.0933 22.3901 58.811 23.9557 58.4645 25.5536C55.1838 24.7549 51.8536 24.179 48.4962 23.8298C46.4968 21.0537 44.3156 18.4149 41.9672 15.9308C47.0749 11.1533 51.8713 8.53213 55.1374 8.52245L55.1342 8.51922ZM23.7888 8.58378C27.0356 8.58378 31.8545 11.192 36.975 15.9437C34.7741 18.2679 32.5796 20.9052 30.4942 23.8266C27.129 24.1717 23.7918 24.752 20.5067 25.5633C20.1622 24.0493 19.8903 22.5196 19.6917 20.9795C18.9538 14.9495 19.865 10.2624 21.9825 9.01311C22.5921 8.72259 23.2658 8.59992 23.7888 8.58378ZM39.4519 18.4293C40.9117 19.94 42.3715 21.6315 43.8152 23.478C42.4035 23.4134 40.9598 23.3682 39.5 23.3682C38.0242 23.3682 36.5644 23.4005 35.1367 23.478C36.5483 21.6315 38.0081 19.9433 39.4519 18.4293ZM39.5 26.9061C41.8742 26.9061 44.2387 27.0159 46.5647 27.2063C47.8673 29.0851 49.1378 31.0897 50.3602 33.2105C51.5537 35.2764 52.6381 37.3747 53.6263 39.4923C52.6381 41.6066 51.5537 43.721 50.3763 45.7869C49.1571 47.9174 47.8962 49.9447 46.5904 51.8234C41.8813 52.238 37.1453 52.2434 32.4353 51.8395C31.0883 49.8917 29.8221 47.8886 28.6398 45.8354C27.4463 43.7694 26.3619 41.6712 25.3737 39.5536C26.3651 37.4044 27.4495 35.2998 28.6237 33.246C29.8429 31.1155 31.1038 29.0947 32.4096 27.216C34.7673 27.0064 37.1331 26.9008 39.5 26.8997V26.9061ZM27.8377 27.7261C27.0677 28.943 26.2977 30.1891 25.579 31.4706C24.8572 32.7295 24.1834 33.9949 23.5417 35.2603C22.6915 33.1427 21.9697 31.0316 21.3729 28.9753C23.4262 28.4911 25.5919 28.0585 27.8377 27.7261ZM51.1302 27.7261C53.36 28.0585 55.5096 28.4685 57.5661 28.9753C56.9886 31.0154 56.2668 33.1137 55.4486 35.2151C54.1395 32.6456 52.6991 30.1459 51.1334 27.7261H51.1302ZM60.9573 29.905C62.5102 30.3892 63.986 30.9283 65.3688 31.5125C70.9256 33.9013 74.519 37.026 74.519 39.5052C74.5029 41.9843 70.9096 45.122 65.3528 47.4946C64.0052 48.0756 62.5294 48.5986 61.0055 49.086C60.0418 45.8045 58.8628 42.5909 57.4763 39.4664C58.92 36.1835 60.075 32.9781 60.9573 29.8985V29.905ZM17.9817 29.9179C18.8736 33.0168 20.0511 36.2352 21.5109 39.5375C20.1344 42.6432 18.9702 45.84 18.0266 49.1054C16.4738 48.6212 14.998 48.0788 13.6312 47.4913C8.07438 45.1123 4.48104 41.9843 4.48104 39.5052C4.48104 37.026 8.07438 33.8819 13.6312 31.5125C14.9787 30.9315 16.4545 30.4086 17.9817 29.9179ZM55.4486 43.7339C56.2988 45.8547 57.0207 47.9691 57.6175 50.0221C55.5641 50.5289 53.3953 50.9583 51.1495 51.2811C52.7132 48.8424 54.1461 46.3233 55.4486 43.7339ZM23.5417 43.7985C24.1834 45.0639 24.8572 46.326 25.5951 47.5914C26.333 48.8503 27.087 50.0835 27.857 51.2811C25.6936 50.9662 23.546 50.5504 21.421 50.035C21.9985 48.0014 22.7236 45.8967 23.5385 43.7952L23.5417 43.7985ZM58.4933 53.4406C58.8527 55.032 59.135 56.5654 59.3082 58.0341C60.0462 64.0641 59.135 68.7512 57.0175 70.0037C56.5459 70.2942 55.9331 70.4169 55.2112 70.4169C51.9644 70.4169 47.1455 67.8118 42.025 63.0569C44.2259 60.7328 46.4204 58.0987 48.5058 55.1805C52.0574 54.7996 55.4165 54.2153 58.4933 53.4406ZM20.5387 53.4729C23.6187 54.2283 26.9747 54.8125 30.507 55.1902C32.6245 58.1116 34.8223 60.765 37.036 63.086C31.9187 67.8732 27.1158 70.4944 23.8498 70.4944C23.2327 70.4993 22.6238 70.353 22.0755 70.0683C19.9388 68.8416 19.0116 64.148 19.7335 58.1148C19.9067 56.6299 20.1922 55.0676 20.5387 53.4729ZM35.1687 55.5388C36.5804 55.6034 38.0242 55.6486 39.484 55.6486C40.9598 55.6486 42.4196 55.6163 43.8473 55.5388C42.4356 57.3853 40.9758 59.0735 39.5321 60.5907C38.0723 59.0735 36.6125 57.3853 35.1687 55.5388Z" fill="#5A91FE"/>
</svg>
